#!OML:ASF F:\VICON\USERDATA\INSTALL\rory3\rory3.ASF
:FULLY-SPECIFIED
:DEGREES
57
root -0.4873520477037317 18.335370146304726 26.626134152004933 4.736011454696893 0.5177623191339771 -2.160851276559667
lfemur -40.741302823690425 3.293344867019409 -21.17381196759839
ltibia 51.58375395154152
lfoot 5.34839543932245 -17.1811597509801
ltoes -11.708790934682447
rfemur 6.44901717566192 6.614074715398402 30.441197399340197
rtibia 30.398486307493826
rfoot 26.039528990983577 -6.793860362293084
rtoes 13.380843142930907
lowerback 12.316242787238235 2.4792080927434683 4.533032804971848
upperback -1.243501697481244 4.008661912889573 -0.06880176773186697
thorax -8.192236739023633 1.7334113713567416 -3.37093134951109
lowerneck -18.426419567904365 -6.086339891991748 -1.7695093850104844
upperneck 14.680465433941984 -8.779443396776289 3.768355602297719
head 7.661902619213304 -3.9091830492428157 0.6547293744940805
lclavicle 1.1423350775020422e-16 1.6701338466297214e-15
lhumerus -67.55372935549146 -4.099249448507479 91.403313852434
lradius 93.05942489503396
lwrist 36.12146308846861
lhand -29.47261368277933 3.7144819060441208
lfingers 7.125019999999998
lthumb -3.0587032811180737 34.09113587087009
rclavicle 1.1902270870783685e-16 1.674416248577591e-15
rhumerus -35.533167564457464 18.643561395835896 -92.25713592808818
rradius 127.656291475736
rwrist -16.351166670516957
rhand -18.797699525592552 39.823105584663246
rfingers 7.125019999999998
rthumb 7.666995230457013 10.430132998477125
58
root -0.5063510356341334 18.423757986126553 27.56054491670999 5.042586963805148 0.5043114740353587 -2.5646876272175705
lfemur -38.550214152166575 2.284938657626893 -21.02948217195172
ltibia 44.40273246466724
lfoot 6.8713763090130815 -16.55016805876687
ltoes -13.98962333666705
rfemur 6.491085110573577 7.884788861233308 31.07345962946695
rtibia 32.47354837714214
rfoot 27.891761838659793 -7.529962775635989
rtoes 14.32762453568541
lowerback 11.839447468599358 2.668804638629713 4.846896418128511
upperback -1.364401071927726 4.229043375270436 -0.06268417260675563
thorax -8.158849085694165 1.8474831395212192 -3.4801497034609663
lowerneck -18.566368744539776 -6.036432536529684 -1.873653212579072
upperneck 15.004585752016924 -8.741255937360098 3.9656363530582244
head 7.7450716354394515 -3.8925592846491535 0.7213858616194382
lclavicle 1.1298724612996332e-16 1.6692875246397343e-15
lhumerus -67.0882217575346 -3.8910705657233744 91.21245479536397
lradius 93.90761806501627
lwrist 35.73282127378285
lhand -29.63006479269689 4.4955753424447975
lfingers 7.125019999999998
lthumb -3.408054786019134 34.41461693291205
rclavicle 1.185685102979974e-16 1.6740147460615274e-15
rhumerus -36.13069486522315 18.867711312916686 -92.65360050473241
rradius 127.95143144263419
rwrist -16.54786905765896
rhand -18.856129880233514 39.82792829632036
rfingers 7.125019999999998
rthumb 7.547850850511157 10.359981462575654
59
root -0.5273735332441063 18.463426202131416 28.340532760612202 5.04025499057025 -0.12029380727370287 -2.9376274489984793
lfemur -36.085730964040906 2.147140515024013 -21.16825889740847
ltibia 38.192297517208374
lfoot 7.8865750523711124 -15.163160422997493
ltoes -17.06383677517288
rfemur 5.629973927300307 8.940766897028713 31.814481829925953
rtibia 36.140709344126144
rfoot 27.36389138104009 -8.407061331805416
rtoes 12.972579125336217
lowerback 11.818545839589124 2.929093995712769 4.815309841251912
upperback -1.2773088466701457 4.508260075956361 0.04456474904511931
thorax -8.137954550923785 2.0011435149399195 -3.4540037806595882
lowerneck -18.721742738361137 -5.964701644436699 -1.9381946555289344
upperneck 15.098758610226387 -8.656259706776476 4.133780424050894
head 7.785933642903903 -3.8502013181871058 0.7674254366317192
lclavicle 1.122992255847693e-16 1.6688202719402704e-15
lhumerus -66.43200535912618 -3.779388157399175 91.16603102328152
lradius 94.82337822535268
lwrist 35.17531875605126
lhand -29.664537600880948 5.2566512719189245
lfingers 7.125019999999998
lthumb -3.5475836291555227 34.81959683193497
rclavicle 1.1865388643152913e-16 1.674257894730983e-15
rhumerus -36.937513026029805 18.844193300571707 -93.14560412003956
rradius 128.21282042546412
rwrist -16.835543931446324
rhand -18.89113367087682 39.86396490420967
rfingers 7.125019999999998
rthumb 7.426741820137456 10.315961999341237
60
root -0.5423155056596785 18.43683294531965 29.470742314534164 4.821054189522343 -0.05950549439179709 -3.833510003445532
lfemur -33.50293977496104 1.875274779197878 -20.739955244430007
ltibia 33.75247010808357
lfoot 8.823698398523383 -14.14579170965257
ltoes -19.018607561698875
rfemur 4.085869626346041 8.819753492538393 32.756892064174295
rtibia 40.41415931608689
rfoot 25.82176091754044 -9.271877086094658
rtoes 11.239363912987335
lowerback 12.261101509127434 2.896211892572656 5.357876584048385
upperback -1.245099696161875 4.641583345953228 0.18457146549250958
thorax -8.198852613534564 2.049773525671597 -3.4854010317861284
lowerneck -18.878793626372026 -5.854816662397694 -1.9759085814085926
upperneck 15.066321826285407 -8.503081658773997 4.253523440793121
head 7.8128970452572934 -3.78320782307102 0.7929637835204462
lclavicle 1.1404018699341255e-16 1.6700024067156536e-15
lhumerus -65.59774267126161 -3.8814020220404575 91.28425955667292
lradius 95.67424634955499
lwrist 34.48212108615364
lhand -29.505535695041225 5.35965617119321
lfingers 7.125019999999998
lthumb -3.3869187708707544 34.98946973823621
rclavicle 1.1814109873827675e-16 1.6738660105903384e-15
rhumerus -37.953199731319316 18.48446666841118 -93.70791881962865
rradius 128.4492169769004
rwrist -17.18877740730519
rhand -18.899416125866697 39.956270325300714
rfingers 7.125019999999998
rthumb 7.321849368439249 10.297289649621348
61
root -0.5511574397404153 18.379045946082172 30.487258631297674 4.357787909390644 0.45129819429011875 -3.514638552309211
lfemur -30.967597637819765 0.9147799088825823 -21.35848569048927
ltibia 30.802510048223244
lfoot 9.836077043610146 -14.400241893907502
ltoes -18.411927786728853
rfemur 2.840687611807267 7.628691860278054 32.31764882133998
rtibia 44.94921214080278
rfoot 24.19061058220885 -9.821130936390157
rtoes 10.873683898180815
lowerback 12.66359661091023 2.8308042418300055 5.289957619648546
upperback -1.0670447098993852 4.601240349995798 0.23673749066122218
thorax -8.177560421056087 2.023246235137217 -3.4263432068250994
lowerneck -18.91373711081187 -5.730146065766829 -2.0263398543283113
upperneck 14.941613523230583 -8.315786576026838 4.364198256887187
head 7.820743168747133 -3.6960199010632757 0.8288818117741421
lclavicle 1.1547571985406281e-16 1.6709768256112802e-15
lhumerus -64.75492177015637 -4.246206931539908 91.42917159486564
lradius 96.4081696830378
lwrist 33.68950847749113
lhand -29.26277750375986 5.201129474992932
lfingers 7.125019999999998
lthumb -2.9712403993958603 35.159393323163435
rclavicle 1.1939325092864155e-16 1.6747589794302285e-15
rhumerus -39.08411915977292 17.82513890423508 -94.31502131245877
rradius 128.5406477907964
rwrist -17.505545252166073
rhand -18.909837456702487 40.04947274614393
rfingers 7.125019999999998
rthumb 7.277909513492479 10.324978368474076
62
root -0.5769466851313079 18.261688711167633 31.36953139578951 3.639510095023413 1.427598459279466 -2.988705791536376
lfemur -28.711731859633005 -0.6985522126196893 -22.17178738955666
ltibia 29.409529955511385
lfoot 10.376092636917662 -15.911762632597885
ltoes -15.415944018152047
rfemur 2.1416891763709547 5.41905614536023 31.538173254068084
rtibia 49.57788697528936
rfoot 22.814410513782413 -9.79107701406772
rtoes 10.909906538706153
lowerback 13.117442582082427 2.6851409964926285 4.763981290854368
upperback -0.8231055685016893 4.383332374556926 0.3048933541518092
thorax -8.266561462528626 1.9376855683840044 -3.043700328625471
lowerneck -18.8338660124277 -5.622631206179067 -2.076471432292728
upperneck 14.781407905063388 -8.13870379723141 4.466361532594991
head 7.805282359157811 -3.5986297357214685 0.8691542537338085
lclavicle 1.160424911862457e-16 1.6713615680418432e-15
lhumerus -63.5926001297073 -4.724767425094111 91.62443231828038
lradius 96.72185002523779
lwrist 33.016368833918534
lhand -28.986376079216907 5.242754950270087
lfingers 7.125019999999998
lthumb -2.4595061343320013 35.25838304623127
rclavicle 1.2089108063894046e-16 1.6757814452940879e-15
rhumerus -40.07327699676216 16.962182074108586 -94.90429859327388
rradius 128.2266152832192
rwrist -17.75391421809128
rhand -18.926713097441 40.12080412765264
rfingers 7.125019999999998
rthumb 7.254450544571669 10.333985494810221
63
root -0.6310181328254421 18.090411134821018 32.25663048863109 2.7635070090003797 2.168032099790858 -2.580898375154628
lfemur -26.977313662423313 -1.9866026886231873 -22.537056510624435
ltibia 29.97059360621253
lfoot 9.648447694784837 -17.704729153200404
ltoes -11.477196743693746
rfemur 1.4975804818395186 3.071935038792519 30.72921382390659
rtibia 54.21479527792247
rfoot 21.370776755023844 -9.21502475798521
rtoes 10.32254993809582
lowerback 13.689503359528791 2.5865704745390543 3.8376733989216647
upperback -0.5467452905388819 4.13827154144746 0.3155151384467022
thorax -8.390494207384583 1.8514227452039653 -2.6251694445318856
lowerneck -18.805580109570442 -5.549810222391869 -2.1047620237888918
upperneck 14.701325842539026 -8.001854385029613 4.545292036475486
head 7.8091329944215335 -3.516140129985585 0.8970974840922377
lclavicle 1.1665183047076214e-16 1.6717751622597814e-15
lhumerus -62.14793277834751 -5.3590950444354295 91.86458520849509
lradius 96.66982156331709
lwrist 32.80924857522454
lhand -28.75278527021089 5.421532249408472
lfingers 7.125019999999998
lthumb -2.069017351742384 35.096508547519534
rclavicle 1.2377960574940231e-16 1.6777322327697492e-15
rhumerus -40.87028997369506 15.952539669668058 -95.42976650833839
rradius 127.36313887693609
rwrist -17.908645752122514
rhand -18.930732461781872 40.16369617225865
rfingers 7.125019999999998
rthumb 7.286260473789095 10.431899137789232
